<svg xmlns="http://www.w3.org/2000/svg" version="1.1" xmlns:xlink="http://www.w3.org/1999/xlink" xmlns:svgjs="http://svgjs.dev/svgjs" width="1440" height="560" preserveAspectRatio="none" viewBox="0 0 1440 560">
    <g mask="url(&quot;#SvgjsMask1013&quot;)" fill="none">
        <path d="M111.82 48.39L176.78 85.89L176.78 160.89L111.82 198.39L46.87 160.89L46.87 85.89zM241.73 48.39L306.69 85.89L306.69 160.89L241.73 198.39L176.78 160.89L176.78 85.89zM176.78 160.89L241.73 198.39L241.73 273.39L176.78 310.89L111.82 273.39L111.82 198.39zM241.73 498.39L306.69 535.89L306.69 610.89L241.73 648.39L176.78 610.89L176.78 535.89zM306.69 160.89L371.64 198.39L371.64 273.39L306.69 310.89L241.73 273.39L241.73 198.39zM436.59 -64.11L501.55 -26.61L501.55 48.39L436.59 85.89L371.64 48.39L371.64 -26.61zM436.59 160.89L501.55 198.39L501.55 273.39L436.59 310.89L371.64 273.39L371.64 198.39zM436.59 385.89L501.55 423.39L501.55 498.39L436.59 535.89L371.64 498.39L371.64 423.39zM566.5 385.89L631.45 423.39L631.45 498.39L566.5 535.89L501.55 498.39L501.55 423.39zM761.36 498.39L826.32 535.89L826.32 610.89L761.36 648.39L696.41 610.89L696.41 535.89zM826.31 385.89L891.27 423.39L891.27 498.39L826.31 535.89L761.36 498.39L761.36 423.39zM891.27 498.39L956.22 535.89L956.22 610.89L891.27 648.39L826.31 610.89L826.31 535.89zM1021.18 498.39L1086.13 535.89L1086.13 610.89L1021.18 648.39L956.22 610.89L956.22 535.89zM1151.08 48.39L1216.04 85.89L1216.04 160.89L1151.08 198.39L1086.13 160.89L1086.13 85.89zM1086.13 160.89L1151.08 198.39L1151.08 273.39L1086.13 310.89L1021.18 273.39L1021.18 198.39zM1280.99 273.39L1345.94 310.89L1345.94 385.89L1280.99 423.39L1216.04 385.89L1216.04 310.89zM1345.94 160.89L1410.9 198.39L1410.9 273.39L1345.94 310.89L1280.99 273.39L1280.99 198.39zM1345.94 385.89L1410.9 423.39L1410.9 498.39L1345.94 535.89L1280.99 498.39L1280.99 423.39zM1475.85 385.89L1540.81 423.39L1540.81 498.39L1475.85 535.89L1410.9 498.39L1410.9 423.39z" stroke="#03305d" stroke-width="2"></path>
        <path d="M104.32 48.39 a7.5 7.5 0 1 0 15 0 a7.5 7.5 0 1 0 -15 0zM169.28 85.89 a7.5 7.5 0 1 0 15 0 a7.5 7.5 0 1 0 -15 0zM169.28 160.89 a7.5 7.5 0 1 0 15 0 a7.5 7.5 0 1 0 -15 0zM104.32 198.39 a7.5 7.5 0 1 0 15 0 a7.5 7.5 0 1 0 -15 0zM39.37 160.89 a7.5 7.5 0 1 0 15 0 a7.5 7.5 0 1 0 -15 0zM39.37 85.89 a7.5 7.5 0 1 0 15 0 a7.5 7.5 0 1 0 -15 0zM234.23 48.39 a7.5 7.5 0 1 0 15 0 a7.5 7.5 0 1 0 -15 0zM299.19 85.89 a7.5 7.5 0 1 0 15 0 a7.5 7.5 0 1 0 -15 0zM299.19 160.89 a7.5 7.5 0 1 0 15 0 a7.5 7.5 0 1 0 -15 0zM234.23 198.39 a7.5 7.5 0 1 0 15 0 a7.5 7.5 0 1 0 -15 0zM234.23 273.39 a7.5 7.5 0 1 0 15 0 a7.5 7.5 0 1 0 -15 0zM169.28 310.89 a7.5 7.5 0 1 0 15 0 a7.5 7.5 0 1 0 -15 0zM104.32 273.39 a7.5 7.5 0 1 0 15 0 a7.5 7.5 0 1 0 -15 0zM234.23 498.39 a7.5 7.5 0 1 0 15 0 a7.5 7.5 0 1 0 -15 0zM299.19 535.89 a7.5 7.5 0 1 0 15 0 a7.5 7.5 0 1 0 -15 0zM299.19 610.89 a7.5 7.5 0 1 0 15 0 a7.5 7.5 0 1 0 -15 0zM234.23 648.39 a7.5 7.5 0 1 0 15 0 a7.5 7.5 0 1 0 -15 0zM169.28 610.89 a7.5 7.5 0 1 0 15 0 a7.5 7.5 0 1 0 -15 0zM169.28 535.89 a7.5 7.5 0 1 0 15 0 a7.5 7.5 0 1 0 -15 0zM364.14 198.39 a7.5 7.5 0 1 0 15 0 a7.5 7.5 0 1 0 -15 0zM364.14 273.39 a7.5 7.5 0 1 0 15 0 a7.5 7.5 0 1 0 -15 0zM299.19 310.89 a7.5 7.5 0 1 0 15 0 a7.5 7.5 0 1 0 -15 0zM429.09 -64.11 a7.5 7.5 0 1 0 15 0 a7.5 7.5 0 1 0 -15 0zM494.05 -26.61 a7.5 7.5 0 1 0 15 0 a7.5 7.5 0 1 0 -15 0zM494.05 48.39 a7.5 7.5 0 1 0 15 0 a7.5 7.5 0 1 0 -15 0zM429.09 85.89 a7.5 7.5 0 1 0 15 0 a7.5 7.5 0 1 0 -15 0zM364.14 48.39 a7.5 7.5 0 1 0 15 0 a7.5 7.5 0 1 0 -15 0zM364.14 -26.61 a7.5 7.5 0 1 0 15 0 a7.5 7.5 0 1 0 -15 0zM429.09 160.89 a7.5 7.5 0 1 0 15 0 a7.5 7.5 0 1 0 -15 0zM494.05 198.39 a7.5 7.5 0 1 0 15 0 a7.5 7.5 0 1 0 -15 0zM494.05 273.39 a7.5 7.5 0 1 0 15 0 a7.5 7.5 0 1 0 -15 0zM429.09 310.89 a7.5 7.5 0 1 0 15 0 a7.5 7.5 0 1 0 -15 0zM429.09 385.89 a7.5 7.5 0 1 0 15 0 a7.5 7.5 0 1 0 -15 0zM494.05 423.39 a7.5 7.5 0 1 0 15 0 a7.5 7.5 0 1 0 -15 0zM494.05 498.39 a7.5 7.5 0 1 0 15 0 a7.5 7.5 0 1 0 -15 0zM429.09 535.89 a7.5 7.5 0 1 0 15 0 a7.5 7.5 0 1 0 -15 0zM364.14 498.39 a7.5 7.5 0 1 0 15 0 a7.5 7.5 0 1 0 -15 0zM364.14 423.39 a7.5 7.5 0 1 0 15 0 a7.5 7.5 0 1 0 -15 0zM559 385.89 a7.5 7.5 0 1 0 15 0 a7.5 7.5 0 1 0 -15 0zM623.95 423.39 a7.5 7.5 0 1 0 15 0 a7.5 7.5 0 1 0 -15 0zM623.95 498.39 a7.5 7.5 0 1 0 15 0 a7.5 7.5 0 1 0 -15 0zM559 535.89 a7.5 7.5 0 1 0 15 0 a7.5 7.5 0 1 0 -15 0zM753.86 498.39 a7.5 7.5 0 1 0 15 0 a7.5 7.5 0 1 0 -15 0zM818.82 535.89 a7.5 7.5 0 1 0 15 0 a7.5 7.5 0 1 0 -15 0zM818.82 610.89 a7.5 7.5 0 1 0 15 0 a7.5 7.5 0 1 0 -15 0zM753.86 648.39 a7.5 7.5 0 1 0 15 0 a7.5 7.5 0 1 0 -15 0zM688.91 610.89 a7.5 7.5 0 1 0 15 0 a7.5 7.5 0 1 0 -15 0zM688.91 535.89 a7.5 7.5 0 1 0 15 0 a7.5 7.5 0 1 0 -15 0zM818.81 385.89 a7.5 7.5 0 1 0 15 0 a7.5 7.5 0 1 0 -15 0zM883.77 423.39 a7.5 7.5 0 1 0 15 0 a7.5 7.5 0 1 0 -15 0zM883.77 498.39 a7.5 7.5 0 1 0 15 0 a7.5 7.5 0 1 0 -15 0zM818.81 535.89 a7.5 7.5 0 1 0 15 0 a7.5 7.5 0 1 0 -15 0zM753.86 423.39 a7.5 7.5 0 1 0 15 0 a7.5 7.5 0 1 0 -15 0zM948.72 535.89 a7.5 7.5 0 1 0 15 0 a7.5 7.5 0 1 0 -15 0zM948.72 610.89 a7.5 7.5 0 1 0 15 0 a7.5 7.5 0 1 0 -15 0zM883.77 648.39 a7.5 7.5 0 1 0 15 0 a7.5 7.5 0 1 0 -15 0zM818.81 610.89 a7.5 7.5 0 1 0 15 0 a7.5 7.5 0 1 0 -15 0zM1013.68 498.39 a7.5 7.5 0 1 0 15 0 a7.5 7.5 0 1 0 -15 0zM1078.63 535.89 a7.5 7.5 0 1 0 15 0 a7.5 7.5 0 1 0 -15 0zM1078.63 610.89 a7.5 7.5 0 1 0 15 0 a7.5 7.5 0 1 0 -15 0zM1013.68 648.39 a7.5 7.5 0 1 0 15 0 a7.5 7.5 0 1 0 -15 0zM1143.58 48.39 a7.5 7.5 0 1 0 15 0 a7.5 7.5 0 1 0 -15 0zM1208.54 85.89 a7.5 7.5 0 1 0 15 0 a7.5 7.5 0 1 0 -15 0zM1208.54 160.89 a7.5 7.5 0 1 0 15 0 a7.5 7.5 0 1 0 -15 0zM1143.58 198.39 a7.5 7.5 0 1 0 15 0 a7.5 7.5 0 1 0 -15 0zM1078.63 160.89 a7.5 7.5 0 1 0 15 0 a7.5 7.5 0 1 0 -15 0zM1078.63 85.89 a7.5 7.5 0 1 0 15 0 a7.5 7.5 0 1 0 -15 0zM1143.58 273.39 a7.5 7.5 0 1 0 15 0 a7.5 7.5 0 1 0 -15 0zM1078.63 310.89 a7.5 7.5 0 1 0 15 0 a7.5 7.5 0 1 0 -15 0zM1013.68 273.39 a7.5 7.5 0 1 0 15 0 a7.5 7.5 0 1 0 -15 0zM1013.68 198.39 a7.5 7.5 0 1 0 15 0 a7.5 7.5 0 1 0 -15 0zM1273.49 273.39 a7.5 7.5 0 1 0 15 0 a7.5 7.5 0 1 0 -15 0zM1338.44 310.89 a7.5 7.5 0 1 0 15 0 a7.5 7.5 0 1 0 -15 0zM1338.44 385.89 a7.5 7.5 0 1 0 15 0 a7.5 7.5 0 1 0 -15 0zM1273.49 423.39 a7.5 7.5 0 1 0 15 0 a7.5 7.5 0 1 0 -15 0zM1208.54 385.89 a7.5 7.5 0 1 0 15 0 a7.5 7.5 0 1 0 -15 0zM1208.54 310.89 a7.5 7.5 0 1 0 15 0 a7.5 7.5 0 1 0 -15 0zM1338.44 160.89 a7.5 7.5 0 1 0 15 0 a7.5 7.5 0 1 0 -15 0zM1403.4 198.39 a7.5 7.5 0 1 0 15 0 a7.5 7.5 0 1 0 -15 0zM1403.4 273.39 a7.5 7.5 0 1 0 15 0 a7.5 7.5 0 1 0 -15 0zM1273.49 198.39 a7.5 7.5 0 1 0 15 0 a7.5 7.5 0 1 0 -15 0zM1403.4 423.39 a7.5 7.5 0 1 0 15 0 a7.5 7.5 0 1 0 -15 0zM1403.4 498.39 a7.5 7.5 0 1 0 15 0 a7.5 7.5 0 1 0 -15 0zM1338.44 535.89 a7.5 7.5 0 1 0 15 0 a7.5 7.5 0 1 0 -15 0zM1273.49 498.39 a7.5 7.5 0 1 0 15 0 a7.5 7.5 0 1 0 -15 0zM1468.35 385.89 a7.5 7.5 0 1 0 15 0 a7.5 7.5 0 1 0 -15 0zM1533.31 423.39 a7.5 7.5 0 1 0 15 0 a7.5 7.5 0 1 0 -15 0zM1533.31 498.39 a7.5 7.5 0 1 0 15 0 a7.5 7.5 0 1 0 -15 0zM1468.35 535.89 a7.5 7.5 0 1 0 15 0 a7.5 7.5 0 1 0 -15 0z" fill="#03305d"></path>
        <path d="M24.15 -30.39L67.45 -5.39L67.45 44.61L24.15 69.61L-19.15 44.61L-19.15 -5.39zM24.15 119.61L67.45 144.61L67.45 194.61L24.15 219.61L-19.15 194.61L-19.15 144.61zM67.45 344.61L110.75 369.61L110.75 419.61L67.45 444.61L24.15 419.61L24.15 369.61zM24.15 419.61L67.45 444.61L67.45 494.61L24.15 519.61L-19.15 494.61L-19.15 444.61zM110.75 -30.39L154.06 -5.39L154.06 44.61L110.75 69.61L67.45 44.61L67.45 -5.39zM154.06 194.61L197.36 219.61L197.36 269.61L154.06 294.61L110.75 269.61L110.75 219.61zM110.75 269.61L154.06 294.61L154.06 344.61L110.75 369.61L67.45 344.61L67.45 294.61zM154.06 494.61L197.36 519.61L197.36 569.61L154.06 594.61L110.75 569.61L110.75 519.61zM197.36 119.61L240.66 144.61L240.66 194.61L197.36 219.61L154.06 194.61L154.06 144.61zM240.66 344.61L283.96 369.61L283.96 419.61L240.66 444.61L197.36 419.61L197.36 369.61zM197.36 419.61L240.66 444.61L240.66 494.61L197.36 519.61L154.06 494.61L154.06 444.61zM283.96 119.61L327.27 144.61L327.27 194.61L283.96 219.61L240.66 194.61L240.66 144.61zM327.27 194.61L370.57 219.61L370.57 269.61L327.27 294.61L283.96 269.61L283.96 219.61zM283.96 269.61L327.27 294.61L327.27 344.61L283.96 369.61L240.66 344.61L240.66 294.61zM327.27 344.61L370.57 369.61L370.57 419.61L327.27 444.61L283.96 419.61L283.96 369.61zM283.96 419.61L327.27 444.61L327.27 494.61L283.96 519.61L240.66 494.61L240.66 444.61zM327.27 494.61L370.57 519.61L370.57 569.61L327.27 594.61L283.96 569.61L283.96 519.61zM370.57 119.61L413.87 144.61L413.87 194.61L370.57 219.61L327.27 194.61L327.27 144.61zM413.87 194.61L457.18 219.61L457.18 269.61L413.87 294.61L370.57 269.61L370.57 219.61zM413.87 344.61L457.18 369.61L457.18 419.61L413.87 444.61L370.57 419.61L370.57 369.61zM370.57 419.61L413.87 444.61L413.87 494.61L370.57 519.61L327.27 494.61L327.27 444.61zM413.87 494.61L457.18 519.61L457.18 569.61L413.87 594.61L370.57 569.61L370.57 519.61zM457.18 -30.39L500.48 -5.39L500.48 44.61L457.18 69.61L413.87 44.61L413.87 -5.39zM500.48 44.61L543.78 69.61L543.78 119.61L500.48 144.61L457.18 119.61L457.18 69.61zM500.48 194.61L543.78 219.61L543.78 269.61L500.48 294.61L457.18 269.61L457.18 219.61zM500.48 344.61L543.78 369.61L543.78 419.61L500.48 444.61L457.18 419.61L457.18 369.61zM587.08 44.61L630.38 69.61L630.38 119.61L587.08 144.61L543.78 119.61L543.78 69.61zM543.78 119.61L587.08 144.61L587.08 194.61L543.78 219.61L500.48 194.61L500.48 144.61zM543.78 269.61L587.08 294.61L587.08 344.61L543.78 369.61L500.48 344.61L500.48 294.61zM587.08 344.61L630.38 369.61L630.38 419.61L587.08 444.61L543.78 419.61L543.78 369.61zM543.78 419.61L587.08 444.61L587.08 494.61L543.78 519.61L500.48 494.61L500.48 444.61zM630.38 -30.39L673.69 -5.39L673.69 44.61L630.38 69.61L587.08 44.61L587.08 -5.39zM673.69 44.61L716.99 69.61L716.99 119.61L673.69 144.61L630.38 119.61L630.38 69.61zM673.69 344.61L716.99 369.61L716.99 419.61L673.69 444.61L630.38 419.61L630.38 369.61zM673.69 494.61L716.99 519.61L716.99 569.61L673.69 594.61L630.38 569.61L630.38 519.61zM716.99 -30.39L760.29 -5.39L760.29 44.61L716.99 69.61L673.69 44.61L673.69 -5.39zM760.29 44.61L803.6 69.61L803.6 119.61L760.29 144.61L716.99 119.61L716.99 69.61zM716.99 119.61L760.29 144.61L760.29 194.61L716.99 219.61L673.69 194.61L673.69 144.61zM760.29 194.61L803.6 219.61L803.6 269.61L760.29 294.61L716.99 269.61L716.99 219.61zM716.99 419.61L760.29 444.61L760.29 494.61L716.99 519.61L673.69 494.61L673.69 444.61zM760.29 494.61L803.6 519.61L803.6 569.61L760.29 594.61L716.99 569.61L716.99 519.61zM846.9 44.61L890.2 69.61L890.2 119.61L846.9 144.61L803.6 119.61L803.6 69.61zM803.6 119.61L846.9 144.61L846.9 194.61L803.6 219.61L760.29 194.61L760.29 144.61zM803.6 269.61L846.9 294.61L846.9 344.61L803.6 369.61L760.29 344.61L760.29 294.61zM846.9 494.61L890.2 519.61L890.2 569.61L846.9 594.61L803.6 569.61L803.6 519.61zM933.5 44.61L976.81 69.61L976.81 119.61L933.5 144.61L890.2 119.61L890.2 69.61zM976.81 -30.39L1020.11 -5.39L1020.11 44.61L976.81 69.61L933.5 44.61L933.5 -5.39zM1020.11 44.61L1063.41 69.61L1063.41 119.61L1020.11 144.61L976.81 119.61L976.81 69.61zM976.81 119.61L1020.11 144.61L1020.11 194.61L976.81 219.61L933.5 194.61L933.5 144.61zM1020.11 194.61L1063.41 219.61L1063.41 269.61L1020.11 294.61L976.81 269.61L976.81 219.61zM976.81 269.61L1020.11 294.61L1020.11 344.61L976.81 369.61L933.5 344.61L933.5 294.61zM1020.11 344.61L1063.41 369.61L1063.41 419.61L1020.11 444.61L976.81 419.61L976.81 369.61zM976.81 419.61L1020.11 444.61L1020.11 494.61L976.81 519.61L933.5 494.61L933.5 444.61zM1063.41 -30.39L1106.71 -5.39L1106.71 44.61L1063.41 69.61L1020.11 44.61L1020.11 -5.39zM1106.71 44.61L1150.02 69.61L1150.02 119.61L1106.71 144.61L1063.41 119.61L1063.41 69.61zM1063.41 119.61L1106.71 144.61L1106.71 194.61L1063.41 219.61L1020.11 194.61L1020.11 144.61zM1106.71 194.61L1150.02 219.61L1150.02 269.61L1106.71 294.61L1063.41 269.61L1063.41 219.61zM1106.71 494.61L1150.02 519.61L1150.02 569.61L1106.71 594.61L1063.41 569.61L1063.41 519.61zM1193.32 44.61L1236.62 69.61L1236.62 119.61L1193.32 144.61L1150.02 119.61L1150.02 69.61zM1150.02 119.61L1193.32 144.61L1193.32 194.61L1150.02 219.61L1106.71 194.61L1106.71 144.61zM1193.32 194.61L1236.62 219.61L1236.62 269.61L1193.32 294.61L1150.02 269.61L1150.02 219.61zM1150.02 269.61L1193.32 294.61L1193.32 344.61L1150.02 369.61L1106.71 344.61L1106.71 294.61zM1193.32 344.61L1236.62 369.61L1236.62 419.61L1193.32 444.61L1150.02 419.61L1150.02 369.61zM1150.02 419.61L1193.32 444.61L1193.32 494.61L1150.02 519.61L1106.71 494.61L1106.71 444.61zM1279.92 44.61L1323.23 69.61L1323.23 119.61L1279.92 144.61L1236.62 119.61L1236.62 69.61zM1279.92 194.61L1323.23 219.61L1323.23 269.61L1279.92 294.61L1236.62 269.61L1236.62 219.61zM1279.92 344.61L1323.23 369.61L1323.23 419.61L1279.92 444.61L1236.62 419.61L1236.62 369.61zM1236.62 419.61L1279.92 444.61L1279.92 494.61L1236.62 519.61L1193.32 494.61L1193.32 444.61zM1279.92 494.61L1323.23 519.61L1323.23 569.61L1279.92 594.61L1236.62 569.61L1236.62 519.61zM1366.53 44.61L1409.83 69.61L1409.83 119.61L1366.53 144.61L1323.23 119.61L1323.23 69.61zM1366.53 194.61L1409.83 219.61L1409.83 269.61L1366.53 294.61L1323.23 269.61L1323.23 219.61zM1453.13 44.61L1496.44 69.61L1496.44 119.61L1453.13 144.61L1409.83 119.61L1409.83 69.61zM1409.83 419.61L1453.13 444.61L1453.13 494.61L1409.83 519.61L1366.53 494.61L1366.53 444.61zM1453.13 494.61L1496.44 519.61L1496.44 569.61L1453.13 594.61L1409.83 569.61L1409.83 519.61z" stroke="url(&quot;#SvgjsLinearGradient1014&quot;)" stroke-width="2"></path>
    </g>
    <defs>
        <mask id="SvgjsMask1013">
            <rect width="1440" height="560" fill="#ffffff"></rect>
        </mask>
        <linearGradient x1="220.03199999999998" y1="-220.02399999999997" x2="1219.9679999999998" y2="780.024" gradientUnits="userSpaceOnUse" id="SvgjsLinearGradient1014">
            <stop stop-color="#0e2a47" offset="0"></stop>
            <stop stop-color="rgba(245, 0, 87, 1)" offset="1"></stop>
        </linearGradient>
    </defs>
</svg>