<svg xmlns="http://www.w3.org/2000/svg" version="1.1" xmlns:xlink="http://www.w3.org/1999/xlink" xmlns:svgjs="http://svgjs.dev/svgjs" width="1440" height="560" preserveAspectRatio="none" viewBox="0 0 1440 560">
    <g mask="url(&quot;#SvgjsMask1016&quot;)" fill="none">
        <path d="M107.8 51.84L115.9 51.84L115.9 56.16L107.8 56.16z" stroke="rgba(245, 0, 87, 1)"></path>
        <path d="M503.94 120.09a34.71 34.71 0 1 0-47.69 50.45z" stroke="rgba(102, 195, 255, 1)"></path>
        <path d="M1251.59 1.97L1294.62 1.97L1294.62 45L1251.59 45z" fill="rgba(245, 0, 87, 1)"></path>
        <path d="M599.76 261.07L623.66 261.07L623.66 284.97L599.76 284.97z" fill="rgba(245, 0, 87, 1)"></path>
        <path d="M365.69 362.92L369.69 362.92L369.69 391.81L365.69 391.81z" fill="rgba(102, 195, 255, 1)"></path>
        <path d="M412.44 203.73L429.43 203.73L429.43 231.39L412.44 231.39z" fill="rgba(102, 195, 255, 1)"></path>
        <path d="M1462.66 90.24a48.14 48.14 0 1 0-55.92-78.38z" fill="rgba(245, 0, 87, 1)"></path>
        <path d="M1263.08 391.25L1265.71 391.25L1265.71 402.66L1263.08 402.66z" stroke="rgba(102, 195, 255, 1)"></path>
        <path d="M350.99 262.48 a8.91 8.91 0 1 0 17.82 0 a8.91 8.91 0 1 0 -17.82 0z" fill="rgba(102, 195, 255, 1)"></path>
        <path d="M560.03 258.14L600.18 258.14L600.18 298.29L560.03 298.29z" fill="rgba(102, 195, 255, 1)"></path>
        <path d="M358.31 79.34L368.04 79.34L368.04 89.07L358.31 89.07z" stroke="rgba(245, 0, 87, 1)"></path>
        <path d="M670.15 64.8 a9.2 9.2 0 1 0 18.4 0 a9.2 9.2 0 1 0 -18.4 0z" stroke="rgba(245, 0, 87, 1)"></path>
        <path d="M1187.93 97.17L1200 97.17L1200 109.24L1187.93 109.24z" fill="rgba(102, 195, 255, 1)"></path>
        <path d="M829.32 479.02a52.24 52.24 0 1 0-67.65 79.62z" fill="rgba(102, 195, 255, 1)"></path>
        <path d="M83.42 101.08L105.37 101.08L105.37 143.7L83.42 143.7z" stroke="rgba(102, 195, 255, 1)"></path>
        <path d="M1103.72 353.75 a2.16 2.16 0 1 0 4.32 0 a2.16 2.16 0 1 0 -4.32 0z" stroke="rgba(245, 0, 87, 1)"></path>
        <path d="M79.69 77.39L108.62 77.39L108.62 82.76L79.69 82.76z" fill="rgba(245, 0, 87, 1)"></path>
        <path d="M6.2 12.64 a31.04 31.04 0 1 0 62.08 0 a31.04 31.04 0 1 0 -62.08 0z" fill="rgba(102, 195, 255, 1)"></path>
        <path d="M937.96 63.63 a41.59 41.59 0 1 0 83.18 0 a41.59 41.59 0 1 0 -83.18 0z" fill="rgba(245, 0, 87, 1)"></path>
        <path d="M508.88 412.53L514.63 412.53L514.63 466.79L508.88 466.79z" stroke="rgba(245, 0, 87, 1)"></path>
        <path d="M1269.09 87.8L1276.77 87.8L1276.77 95.48L1269.09 95.48z" fill="rgba(245, 0, 87, 1)"></path>
        <path d="M601.92 271.13L639.91 271.13L639.91 309.12L601.92 309.12z" fill="rgba(245, 0, 87, 1)"></path>
        <path d="M1268.12 108.14L1294.46 108.14L1294.46 134.48L1268.12 134.48z" stroke="rgba(245, 0, 87, 1)"></path>
        <path d="M30.98 273.45L49.77 273.45L49.77 291.62L30.98 291.62z" stroke="rgba(245, 0, 87, 1)"></path>
        <path d="M1289.58 445.56 a19.16 19.16 0 1 0 38.32 0 a19.16 19.16 0 1 0 -38.32 0z" fill="rgba(102, 195, 255, 1)"></path>
        <path d="M1153.14 330.58L1203.37 330.58L1203.37 380.81L1153.14 380.81z" fill="rgba(102, 195, 255, 1)"></path>
        <path d="M174.12 52.19L224.69 52.19L224.69 60.43L174.12 60.43z" stroke="rgba(245, 0, 87, 1)"></path>
        <path d="M1476.79 71.36a48.46 48.46 0 1 0-96.63 7.44z" stroke="rgba(102, 195, 255, 1)"></path>
        <path d="M1416.55-1.96a46.97 46.97 0 1 0 42.58 83.73z" stroke="rgba(102, 195, 255, 1)"></path>
        <path d="M743.13 184.03L761.78 184.03L761.78 201.37L743.13 201.37z" stroke="rgba(102, 195, 255, 1)"></path>
        <path d="M867.73 385.26a42.96 42.96 0 1 0-76.27-39.57z" fill="rgba(245, 0, 87, 1)"></path>
        <path d="M390.92 467.45L426.01 467.45L426.01 510.18L390.92 510.18z" fill="rgba(102, 195, 255, 1)"></path>
        <path d="M1211.71 258.96L1214.12 258.96L1214.12 293.84L1211.71 293.84z" stroke="rgba(102, 195, 255, 1)"></path>
    </g>
    <defs>
        <mask id="SvgjsMask1016">
            <rect width="1440" height="560" fill="#ffffff"></rect>
        </mask>
    </defs>
</svg>